<?xml version="1.0" encoding="iso-8859-1"?>
<!-- Generator: Adobe Illustrator 18.0.0, SVG Export Plug-In . SVG Version: 6.00 Build 0)  -->
<!DOCTYPE svg PUBLIC "-//W3C//DTD SVG 1.1//EN" "http://www.w3.org/Graphics/SVG/1.1/DTD/svg11.dtd">
<svg version="1.1" id="Capa_1" xmlns="http://www.w3.org/2000/svg" xmlns:xlink="http://www.w3.org/1999/xlink" x="0px" y="0px"
	 viewBox="0 0 512 512" style="enable-background:new 0 0 512 512;" xml:space="preserve">
<g>
	<path style="fill:#003B54;" d="M496,424H16c-8.836,0-16-7.164-16-16V104c0-8.836,7.164-16,16-16h480c8.836,0,16,7.164,16,16v304
		C512,416.836,504.836,424,496,424z M32,392h448V120H32V392z"/>
	<g>
		<rect x="64" y="152" style="fill:#F69348;" width="376" height="208"/>
	</g>
	<path style="fill:#FFFFFF;" d="M32,120v272h448V120H32z M440,360H64V152h376V360z"/>
	<g>
		<path style="fill:#003953;" d="M256,216c-8.836,0-16,7.172-16,16c0,8.844,7.164,16,16,16c8.836,0,16-7.156,16-16
			C272,223.172,264.836,216,256,216z"/>
	</g>
	<g>
		<path style="fill:#003953;" d="M256,264c-8.836,0-16,7.172-16,16c0,8.844,7.164,16,16,16c8.836,0,16-7.156,16-16
			C272,271.172,264.836,264,256,264z"/>
	</g>
	<g>
		<path style="fill:#FFFFFF;" d="M352,336c-26.469,0-48-21.531-48-48v-64c0-26.469,21.531-48,48-48c26.469,0,48,21.531,48,48v64
			C400,314.469,378.469,336,352,336z M352,208c-8.82,0-16,7.176-16,16v64c0,8.824,7.18,16,16,16s16-7.176,16-16v-64
			C368,215.176,360.82,208,352,208z"/>
	</g>
	<g>
		<path style="fill:#FFFFFF;" d="M160,336c-26.469,0-48-21.531-48-48v-64c0-26.469,21.531-48,48-48c26.469,0,48,21.531,48,48v64
			C208,314.469,186.469,336,160,336z M160,208c-8.82,0-16,7.176-16,16v64c0,8.824,7.18,16,16,16s16-7.176,16-16v-64
			C176,215.176,168.82,208,160,208z"/>
	</g>
</g>
<g>
</g>
<g>
</g>
<g>
</g>
<g>
</g>
<g>
</g>
<g>
</g>
<g>
</g>
<g>
</g>
<g>
</g>
<g>
</g>
<g>
</g>
<g>
</g>
<g>
</g>
<g>
</g>
<g>
</g>
</svg>
